<?xml version="1.0" encoding="UTF-8" standalone="no"?>
<!-- Created with Inkscape (http://www.inkscape.org/) -->

<svg
   xmlns:dc="http://purl.org/dc/elements/1.1/"
   xmlns:cc="http://creativecommons.org/ns#"
   xmlns:rdf="http://www.w3.org/1999/02/22-rdf-syntax-ns#"
   xmlns:svg="http://www.w3.org/2000/svg"
   xmlns="http://www.w3.org/2000/svg"
   xmlns:sodipodi="http://sodipodi.sourceforge.net/DTD/sodipodi-0.dtd"
   xmlns:inkscape="http://www.inkscape.org/namespaces/inkscape"
   version="1.1"
   id="svg815"
   width="198.91576mm"
   height="211.95383mm"
   viewBox="0 0 751.8076 801.08531"
   sodipodi:docname="Illustration_of_overlapping_communities.svg"
   inkscape:version="0.92.2 (5c3e80d, 2017-08-06)">
  <metadata
     id="metadata821">
    <rdf:RDF>
      <cc:Work
         rdf:about="">
        <dc:format>image/svg+xml</dc:format>
        <dc:type
           rdf:resource="http://purl.org/dc/dcmitype/StillImage" />
        <dc:title></dc:title>
      </cc:Work>
    </rdf:RDF>
  </metadata>
  <defs
     id="defs819" />
  <sodipodi:namedview
     pagecolor="#ffffff"
     bordercolor="#666666"
     borderopacity="1"
     objecttolerance="10"
     gridtolerance="10"
     guidetolerance="10"
     inkscape:pageopacity="0"
     inkscape:pageshadow="2"
     inkscape:window-width="1920"
     inkscape:window-height="1018"
     id="namedview817"
     showgrid="false"
     inkscape:zoom="0.75978267"
     inkscape:cx="388.38872"
     inkscape:cy="436.79907"
     inkscape:window-x="-8"
     inkscape:window-y="-8"
     inkscape:window-maximized="1"
     inkscape:current-layer="svg815"
     units="mm"
     fit-margin-top="1"
     fit-margin-left="1"
     fit-margin-right="1"
     fit-margin-bottom="1" />
  <path
     style="fill:#aaefb1;fill-opacity:1;stroke:#000000;stroke-width:1px;stroke-linecap:butt;stroke-linejoin:miter;stroke-opacity:1"
     d="m 536.2672,256.75836 c 66.19697,44.51948 173.86588,56.00579 201.75621,104.46003 29.42129,80.38341 -15.3025,198.21116 -54.90951,264.31022 -28.11669,32.32898 -68.23104,37.04246 -95.95698,59.62931 -66.02773,53.78929 -104.40604,103.92093 -138.14519,93.95943 -33.62094,-9.9266 -27.69181,-34.56807 -14.41283,-85.65221 3.97225,-15.28121 16.88246,-42.03166 15.2036,-59.5605 -1.73261,-19.97723 -35.34425,-14.78893 -62.83321,-18.69614 -40.10014,-5.69973 -23.48793,-54.73869 -54.25257,-60.87613 -10.26827,-26.25527 -21.33921,-52.24298 -36.76147,-76.78025 0.35563,-9.96598 -5.13912,-12.91818 5.54916,-21.88903 61.97571,-52.01722 87.73829,-91.30662 98.36625,-159.98831 21.7417,-52.01759 33.52449,-120.42586 136.39654,-38.91642 z"
     id="path939"
     inkscape:connector-curvature="0"
     sodipodi:nodetypes="cccssscsccscc" />
  <path
     style="fill:#a5a5ff;fill-opacity:1;stroke:#000000;stroke-width:1px;stroke-linecap:butt;stroke-linejoin:miter;stroke-opacity:1"
     d="m 47.863264,187.22739 c 51.158806,-36.2286 126.035916,-5.41213 169.866436,41.30562 38.38211,40.91043 78.53705,157.1635 48.03885,176.98516 -18.31794,11.90536 -45.95221,18.45097 -69.7577,16.44431 C 134.79055,416.802 80.114015,419.95485 26.226366,350.2392 -5.9523067,303.64243 -5.9558927,225.33994 47.863264,187.22739 Z"
     id="path989"
     inkscape:connector-curvature="0"
     sodipodi:nodetypes="sssscs" />
  <path
     style="fill:#fff488;fill-opacity:1;stroke:#000000;stroke-width:1px;stroke-linecap:butt;stroke-linejoin:miter;stroke-opacity:1"
     d="M 313.16823,445.38864 C 230.36995,428.3452 181.35111,429.60558 150.95079,457.23413 27.25096,569.65554 73.378764,661.17924 76.58742,683.61466 c 26.8482,71.96626 56.94856,111.41089 90.81545,113.19026 18.90271,-1.28348 60.37699,-34.74321 77.27486,-44.1187 59.05277,-32.76439 113.66256,12.38499 160.47304,22.15275 15.2498,3.18211 13.15305,3.53858 43.41803,3.86867 -27.31811,0.29726 -12.6681,-88.84119 -12.6681,-88.84119 0,0 -49.15996,-17.26977 -48.69813,-22.04578 -13.87587,-10.11383 24.9176,-55.52552 8.84541,-57.22009 -12.656,-1.33438 -22.7878,-2.25088 -35.16873,-4.6397 z"
     id="path965"
     inkscape:connector-curvature="0"
     sodipodi:nodetypes="csccsscccscc" />
  <path
     style="fill:none;stroke:#000000;stroke-width:2.64566922;stroke-linecap:butt;stroke-linejoin:miter;stroke-miterlimit:4;stroke-dasharray:none;stroke-opacity:1"
     d="m 119.1053,399.65188 57.72422,75.57356"
     id="path995"
     inkscape:connector-curvature="0" />
  <path
     style="fill:#ffc0b3;fill-opacity:1;stroke:#a50c29;stroke-width:1px;stroke-linecap:butt;stroke-linejoin:miter;stroke-opacity:1"
     d="m 313.16823,445.38864 c 52.7061,1.01144 64.67095,62.6502 85.74823,143.24572 2.16813,8.29051 1.9374,18.94293 1.11872,27.85584 -31.83428,1.36746 -55.06444,-12.01805 -57.65024,-32.37489 -1.16713,-9.18831 -4.47132,-21.13652 -15.39696,-42.31752 -4.69305,-9.09819 -14.83388,-27.93309 -20.25311,-36.79732 -20.19976,-33.0407 -15.66061,-47.52925 6.43336,-59.61183 z"
     id="path941"
     inkscape:connector-curvature="0"
     sodipodi:nodetypes="cscsssc" />
  <path
     style="fill:#ffc0b3;fill-opacity:1;stroke:#a50c29;stroke-width:1px;stroke-linecap:butt;stroke-linejoin:miter;stroke-opacity:1"
     d="m 448.5688,778.70764 c 40.58009,-10.73449 55.12853,-53.68284 -12.6681,-88.84119 -25.24318,61.68061 -11.79438,83.84248 12.6681,88.84119 z"
     id="path945"
     inkscape:connector-curvature="0"
     sodipodi:nodetypes="ccc" />
  <path
     style="fill:none;stroke:#cb0107;stroke-width:6.8031497;stroke-linecap:butt;stroke-linejoin:miter;stroke-miterlimit:4;stroke-dasharray:none;stroke-opacity:1"
     d="m 332.25138,479.41345 45.07994,114.37289"
     id="path943"
     inkscape:connector-curvature="0" />
  <path
     style="fill:#ef85e1;fill-opacity:1;stroke:#000000;stroke-width:1px;stroke-linecap:butt;stroke-linejoin:miter;stroke-opacity:1"
     d="M 229.92074,139.38008 C 234.2408,47.821171 279.61002,-3.0256281 395.75764,5.1311659 607.68123,20.014098 568.21827,135.7503 569.0391,183.9652 558.93021,305.07914 414.74123,306.38931 314.04729,285.66724 256.50879,268.48734 226.85462,204.36308 229.92074,139.38008 Z"
     id="path905"
     inkscape:connector-curvature="0"
     sodipodi:nodetypes="ssccs" />
  <path
     style="fill:none;stroke:#000000;stroke-width:2.64566922;stroke-linecap:butt;stroke-linejoin:miter;stroke-miterlimit:4;stroke-dasharray:none;stroke-opacity:1"
     d="m 172.90357,214.23701 94.66669,-82.1618"
     id="path991"
     inkscape:connector-curvature="0" />
  <path
     style="fill:#ffc0b3;fill-opacity:1;stroke:#a50c29;stroke-width:1px;stroke-linecap:butt;stroke-linejoin:miter;stroke-opacity:1"
     d="m 399.87066,295.67478 c 16.3534,-76.87861 59.7444,-107.10433 136.39654,-38.91642 -29.703,29.35069 -81.59987,39.39826 -136.39654,38.91642 z"
     id="path909"
     inkscape:connector-curvature="0"
     sodipodi:nodetypes="ccc" />
  <path
     style="fill:#802662;fill-opacity:1;stroke:#711a5d;stroke-width:2.64566922;stroke-linecap:butt;stroke-linejoin:miter;stroke-miterlimit:4;stroke-dasharray:none;stroke-opacity:1"
     d="m 267.57026,132.07521 c 90.67207,3.51928 181.34415,7.03846 272.01623,10.55758"
     id="path864"
     inkscape:connector-curvature="0"
     sodipodi:nodetypes="cc" />
  <path
     style="fill:none;stroke:#000000;stroke-width:2.64566922;stroke-linecap:butt;stroke-linejoin:miter;stroke-miterlimit:4;stroke-dasharray:none;stroke-opacity:1"
     d="m 233.14445,292.58149 78.37858,-30.1399"
     id="path993"
     inkscape:connector-curvature="0" />
  <path
     style="fill:none;stroke:#772060;stroke-width:2.64566922;stroke-linecap:butt;stroke-linejoin:miter;stroke-miterlimit:4;stroke-dasharray:none;stroke-opacity:1"
     d="m 390.82202,181.82643 69.42775,79.29899"
     id="path885"
     inkscape:connector-curvature="0" />
  <path
     style="fill:none;stroke:#711a5d;stroke-width:2.64566922;stroke-linecap:butt;stroke-linejoin:miter;stroke-miterlimit:4;stroke-dasharray:none;stroke-opacity:1"
     d="m 387.86065,33.09969 72.38912,228.02573 79.33672,-118.49263"
     id="path887"
     inkscape:connector-curvature="0" />
  <path
     style="fill:none;stroke:#711a5d;stroke-width:2.64566922;stroke-linecap:butt;stroke-linejoin:miter;stroke-miterlimit:4;stroke-dasharray:none;stroke-opacity:1"
     d="M 460.24977,261.12542 311.52303,262.44159 267.57026,132.07521"
     id="path889"
     inkscape:connector-curvature="0" />
  <path
     style="fill:none;stroke:#772060;stroke-width:2.64566922;stroke-linecap:butt;stroke-linejoin:miter;stroke-miterlimit:4;stroke-dasharray:none;stroke-opacity:1"
     d="m 311.52303,262.44159 79.29899,-80.61516"
     id="path891"
     inkscape:connector-curvature="0" />
  <path
     style="fill:none;stroke:#711a5d;stroke-width:2.64566922;stroke-linecap:butt;stroke-linejoin:miter;stroke-miterlimit:4;stroke-dasharray:none;stroke-opacity:1"
     d="m 387.86065,33.09969 151.72584,109.5331"
     id="path879"
     inkscape:connector-curvature="0" />
  <path
     style="fill:none;stroke:#711a5d;stroke-width:2.64566922;stroke-linecap:butt;stroke-linejoin:miter;stroke-miterlimit:4;stroke-dasharray:none;stroke-opacity:1"
     d="m 267.57026,132.07521 120.29039,-98.97552 2.96137,148.72674"
     id="path881"
     inkscape:connector-curvature="0" />
  <path
     style="fill:none;stroke:#711a5d;stroke-width:2.64566922;stroke-linecap:butt;stroke-linejoin:miter;stroke-miterlimit:4;stroke-dasharray:none;stroke-opacity:1"
     d="m 387.86065,33.09969 -76.33762,229.3419"
     id="path883"
     inkscape:connector-curvature="0" />
  <path
     style="fill:none;stroke:#711a5d;stroke-width:2.64566922;stroke-linecap:butt;stroke-linejoin:miter;stroke-miterlimit:4;stroke-dasharray:none;stroke-opacity:1"
     d="M 460.24977,261.12542 267.57026,132.07521 390.82202,181.82643 539.58649,142.63279 311.52303,262.44159"
     id="path893"
     inkscape:connector-curvature="0" />
  <path
     style="fill:#703654;fill-opacity:1;stroke:#000000;stroke-width:0.77858269;stroke-linecap:round;stroke-miterlimit:4;stroke-dasharray:none;stroke-opacity:1"
     id="path843-7"
     sodipodi:type="arc"
     sodipodi:cx="389.8349"
     sodipodi:cy="180.83932"
     sodipodi:rx="8"
     sodipodi:ry="8"
     sodipodi:start="0"
     sodipodi:end="6.272277"
     sodipodi:open="true"
     d="m 397.8349,180.83932 a 8,8 0 0 1 -7.97818,7.99998 8,8 0 0 1 -8.0217,-7.95634 8,8 0 0 1 7.93443,-8.04337 8,8 0 0 1 8.06497,7.91247" />
  <path
     style="fill:#703654;fill-opacity:1;stroke:#000000;stroke-width:0.77858269;stroke-linecap:round;stroke-miterlimit:4;stroke-dasharray:none;stroke-opacity:1"
     id="path866"
     sodipodi:type="arc"
     sodipodi:cx="387.20258"
     sodipodi:cy="33.428738"
     sodipodi:rx="8"
     sodipodi:ry="8"
     sodipodi:start="0"
     sodipodi:end="6.272277"
     sodipodi:open="true"
     d="m 395.20258,33.428738 a 8,8 0 0 1 -7.97819,7.99997 8,8 0 0 1 -8.0217,-7.956337 8,8 0 0 1 7.93444,-8.043366 8,8 0 0 1 8.06497,7.912468" />
  <path
     style="fill:#703654;fill-opacity:1;stroke:#000000;stroke-width:0.77858269;stroke-linecap:round;stroke-miterlimit:4;stroke-dasharray:none;stroke-opacity:1"
     id="path843"
     sodipodi:type="arc"
     sodipodi:cx="538.7926"
     sodipodi:cy="143.40958"
     sodipodi:rx="8"
     sodipodi:ry="8"
     sodipodi:start="0"
     sodipodi:end="6.272277"
     sodipodi:open="true"
     d="m 546.7926,143.40958 a 8,8 0 0 1 -7.97818,7.99997 8,8 0 0 1 -8.0217,-7.95634 8,8 0 0 1 7.93443,-8.04337 8,8 0 0 1 8.06498,7.91247" />
  <path
     d="m 274.1153,132.14119 a 8,8 0 0 1 -7.97819,7.99997 8,8 0 0 1 -8.0217,-7.95634 8,8 0 0 1 7.93444,-8.04336 8,8 0 0 1 8.06497,7.91246"
     sodipodi:open="true"
     sodipodi:end="6.272277"
     sodipodi:start="0"
     sodipodi:ry="8"
     sodipodi:rx="8"
     sodipodi:cy="132.14119"
     sodipodi:cx="266.1153"
     sodipodi:type="arc"
     id="path860"
     style="fill:#703654;fill-opacity:1;stroke:#000000;stroke-width:0.77858269;stroke-linecap:round;stroke-miterlimit:4;stroke-dasharray:none;stroke-opacity:1" />
  <path
     style="fill:#703654;fill-opacity:1;stroke:#000000;stroke-width:0.77858269;stroke-linecap:round;stroke-miterlimit:4;stroke-dasharray:none;stroke-opacity:1"
     id="path862"
     sodipodi:type="arc"
     sodipodi:cx="312.18112"
     sodipodi:cy="261.12546"
     sodipodi:rx="8"
     sodipodi:ry="8"
     sodipodi:start="0"
     sodipodi:end="6.272277"
     sodipodi:open="true"
     d="m 320.18112,261.12546 a 8,8 0 0 1 -7.97818,7.99997 8,8 0 0 1 -8.0217,-7.95634 8,8 0 0 1 7.93443,-8.04336 8,8 0 0 1 8.06498,7.91246" />
  <path
     style="fill:none;stroke:#4f894a;stroke-width:2.64566922;stroke-linecap:butt;stroke-linejoin:miter;stroke-miterlimit:4;stroke-dasharray:none;stroke-opacity:1"
     d="M 460.24977,261.12542 723.24358,361.94503 658.91648,606.44988 526.76137,553.86704"
     id="path927"
     inkscape:connector-curvature="0"
     sodipodi:nodetypes="cc" />
  <path
     style="fill:none;stroke:#4f894a;stroke-width:2.64566922;stroke-linecap:butt;stroke-linejoin:miter;stroke-miterlimit:4;stroke-dasharray:none;stroke-opacity:1"
     d="M 723.24358,361.94503 526.76137,553.86704"
     id="path929"
     inkscape:connector-curvature="0" />
  <path
     style="fill:none;stroke:#4f894a;stroke-width:2.64566922;stroke-linecap:butt;stroke-linejoin:miter;stroke-miterlimit:4;stroke-dasharray:none;stroke-opacity:1"
     d="M 658.91648,606.44988 451.37712,747.91169 526.76137,553.86704 372.73552,590.62849 405.62889,392.74201 526.76137,553.86704 460.24977,261.12542 404.9708,393.40009 526.71614,336.14688 460.24977,261.12542"
     id="path931"
     inkscape:connector-curvature="0" />
  <path
     style="fill:none;stroke:#4f894a;stroke-width:2.64566922;stroke-linecap:butt;stroke-linejoin:miter;stroke-miterlimit:4;stroke-dasharray:none;stroke-opacity:1"
     d="M 405.62889,392.74201 332.25138,479.41345 526.71614,336.14688 451.37712,747.91169"
     id="path933"
     inkscape:connector-curvature="0" />
  <path
     style="fill:none;stroke:#4f894a;stroke-width:2.64566922;stroke-linecap:butt;stroke-linejoin:miter;stroke-miterlimit:4;stroke-dasharray:none;stroke-opacity:1"
     d="m 658.91648,604.44988 -132.20034,-268.303 0.0452,217.72016 -194.50999,-74.45359 390.9922,-117.46842 -196.52744,-25.79815"
     id="path935"
     inkscape:connector-curvature="0" />
  <path
     style="fill:none;stroke:#4f894a;stroke-width:2.64566922;stroke-linecap:butt;stroke-linejoin:miter;stroke-miterlimit:4;stroke-dasharray:none;stroke-opacity:1"
     d="M 723.24355,361.94503 405.62889,392.74201 658.91648,604.44988"
     id="path937"
     inkscape:connector-curvature="0" />
  <path
     style="fill:#ff0000;fill-opacity:1;stroke:#000000;stroke-width:0.77858269;stroke-linecap:round;stroke-miterlimit:4;stroke-dasharray:none;stroke-opacity:1"
     id="path903"
     sodipodi:type="arc"
     sodipodi:cx="459.26266"
     sodipodi:cy="260.79639"
     sodipodi:rx="11"
     sodipodi:ry="11"
     sodipodi:start="0"
     sodipodi:end="6.272277"
     sodipodi:open="true"
     d="m 470.26266,260.79639 a 11,11 0 0 1 -10.97,10.99996 11,11 0 0 1 -11.02983,-10.93997 11,11 0 0 1 10.90984,-11.05963 11,11 0 0 1 11.08934,10.87965" />
  <path
     d="m 534.78345,335.74088 a 8,8 0 0 1 -7.97819,7.99997 8,8 0 0 1 -8.02169,-7.95634 8,8 0 0 1 7.93443,-8.04337 8,8 0 0 1 8.06497,7.91247"
     sodipodi:open="true"
     sodipodi:end="6.272277"
     sodipodi:start="0"
     sodipodi:ry="8"
     sodipodi:rx="8"
     sodipodi:cy="335.74088"
     sodipodi:cx="526.78345"
     sodipodi:type="arc"
     id="path911"
     style="fill:#59824b;fill-opacity:1;stroke:#000000;stroke-width:0.77858269;stroke-linecap:round;stroke-miterlimit:4;stroke-dasharray:none;stroke-opacity:1" />
  <path
     style="fill:#59824b;fill-opacity:1;stroke:#000000;stroke-width:0.77858269;stroke-linecap:round;stroke-miterlimit:4;stroke-dasharray:none;stroke-opacity:1"
     id="path913"
     sodipodi:type="arc"
     sodipodi:cx="722.22406"
     sodipodi:cy="362.96298"
     sodipodi:rx="8"
     sodipodi:ry="8"
     sodipodi:start="0"
     sodipodi:end="6.272277"
     sodipodi:open="true"
     d="m 730.22406,362.96298 a 8,8 0 0 1 -7.97818,7.99997 8,8 0 0 1 -8.0217,-7.95633 8,8 0 0 1 7.93443,-8.04337 8,8 0 0 1 8.06497,7.91247" />
  <path
     d="m 666.24054,604.4718 a 8,8 0 0 1 -7.97818,7.99997 8,8 0 0 1 -8.0217,-7.95634 8,8 0 0 1 7.93443,-8.04336 8,8 0 0 1 8.06497,7.91247"
     sodipodi:open="true"
     sodipodi:end="6.272277"
     sodipodi:start="0"
     sodipodi:ry="8"
     sodipodi:rx="8"
     sodipodi:cy="604.4718"
     sodipodi:cx="658.24054"
     sodipodi:type="arc"
     id="path915"
     style="fill:#59824b;fill-opacity:1;stroke:#000000;stroke-width:0.77858269;stroke-linecap:round;stroke-miterlimit:4;stroke-dasharray:none;stroke-opacity:1" />
  <path
     style="fill:#59824b;fill-opacity:1;stroke:#000000;stroke-width:0.77858269;stroke-linecap:round;stroke-miterlimit:4;stroke-dasharray:none;stroke-opacity:1"
     id="path917"
     sodipodi:type="arc"
     sodipodi:cx="526.08545"
     sodipodi:cy="555.1463"
     sodipodi:rx="8"
     sodipodi:ry="8"
     sodipodi:start="0"
     sodipodi:end="6.272277"
     sodipodi:open="true"
     d="m 534.08545,555.1463 a 8,8 0 0 1 -7.97818,7.99997 8,8 0 0 1 -8.0217,-7.95634 8,8 0 0 1 7.93443,-8.04336 8,8 0 0 1 8.06497,7.91247" />
  <path
     d="m 412.86572,392.51175 a 8,8 0 0 1 -7.97818,7.99997 8,8 0 0 1 -8.0217,-7.95634 8,8 0 0 1 7.93443,-8.04336 8,8 0 0 1 8.06498,7.91246"
     sodipodi:open="true"
     sodipodi:end="6.272277"
     sodipodi:start="0"
     sodipodi:ry="8"
     sodipodi:rx="8"
     sodipodi:cy="392.51175"
     sodipodi:cx="404.86572"
     sodipodi:type="arc"
     id="path919"
     style="fill:#59824b;fill-opacity:1;stroke:#000000;stroke-width:0.77858269;stroke-linecap:round;stroke-miterlimit:4;stroke-dasharray:none;stroke-opacity:1" />
  <path
     style="fill:none;stroke:#c6b10e;stroke-width:2.64566922;stroke-linecap:butt;stroke-linejoin:miter;stroke-miterlimit:4;stroke-dasharray:none;stroke-opacity:1"
     d="m 97.72259,558.98572 79.57227,-83.29495 -9.3067,304.79436 -74.91892,-94.46298 193.57932,-25.12809 164.72856,87.01763 -274.5476,-272.68625 155.42186,4.18801 -45.13748,181.01528 z"
     id="path957"
     inkscape:connector-curvature="0" />
  <path
     style="fill:none;stroke:#000000;stroke-width:2.64566922;stroke-linecap:butt;stroke-linejoin:miter;stroke-miterlimit:4;stroke-dasharray:none;stroke-opacity:1"
     d="m 244.14106,403.60038 -67.31154,71.62506"
     id="path997"
     inkscape:connector-curvature="0" />
  <path
     style="fill:none;stroke:#c6b10e;stroke-width:2.64566922;stroke-linecap:butt;stroke-linejoin:miter;stroke-miterlimit:4;stroke-dasharray:none;stroke-opacity:1"
     d="M 97.72259,558.98572 165.89415,778.39113 286.64856,660.89406 177.29486,475.69077 375.68611,588.85072 93.06924,686.02215 332.25138,479.41345 Z"
     id="path959"
     inkscape:connector-curvature="0" />
  <path
     style="fill:none;stroke:#c6b10e;stroke-width:2.64566922;stroke-linecap:butt;stroke-linejoin:miter;stroke-miterlimit:4;stroke-dasharray:none;stroke-opacity:1"
     d="M 451.37712,747.91169 96.98799,688.22124 176.82952,475.22544"
     id="path961"
     inkscape:connector-curvature="0" />
  <path
     style="fill:none;stroke:#c6b10e;stroke-width:2.64566922;stroke-linecap:butt;stroke-linejoin:miter;stroke-miterlimit:4;stroke-dasharray:none;stroke-opacity:1"
     d="M 97.72259,558.98572 370.42145,587.8636"
     id="path963"
     inkscape:connector-curvature="0" />
  <path
     d="m 344.62225,480.43445 a 11,11 0 0 1 -10.97,10.99996 11,11 0 0 1 -11.02983,-10.93997 11,11 0 0 1 10.90984,-11.05962 11,11 0 0 1 11.08934,10.87964"
     sodipodi:open="true"
     sodipodi:end="6.272277"
     sodipodi:start="0"
     sodipodi:ry="11"
     sodipodi:rx="11"
     sodipodi:cy="480.43445"
     sodipodi:cx="333.62225"
     sodipodi:type="arc"
     id="path921"
     style="fill:#ff0000;fill-opacity:1;stroke:#000000;stroke-width:0.77858269;stroke-linecap:round;stroke-miterlimit:4;stroke-dasharray:none;stroke-opacity:1" />
  <path
     style="fill:#ff0000;fill-opacity:1;stroke:#000000;stroke-width:0.77858269;stroke-linecap:round;stroke-miterlimit:4;stroke-dasharray:none;stroke-opacity:1"
     id="path923"
     sodipodi:type="arc"
     sodipodi:cx="375.50238"
     sodipodi:cy="590.25348"
     sodipodi:rx="11"
     sodipodi:ry="11"
     sodipodi:start="0"
     sodipodi:end="6.272277"
     sodipodi:open="true"
     d="m 386.50238,590.25348 a 11,11 0 0 1 -10.97,10.99996 11,11 0 0 1 -11.02984,-10.93997 11,11 0 0 1 10.90985,-11.05962 11,11 0 0 1 11.08934,10.87964" />
  <path
     d="m 461.88663,747.53668 a 11,11 0 0 1 -10.97,10.99996 11,11 0 0 1 -11.02984,-10.93996 11,11 0 0 1 10.90984,-11.05963 11,11 0 0 1 11.08934,10.87964"
     sodipodi:open="true"
     sodipodi:end="6.272277"
     sodipodi:start="0"
     sodipodi:ry="11"
     sodipodi:rx="11"
     sodipodi:cy="747.53668"
     sodipodi:cx="450.88663"
     sodipodi:type="arc"
     id="path925"
     style="fill:#ff0000;fill-opacity:1;stroke:#000000;stroke-width:0.77858269;stroke-linecap:round;stroke-miterlimit:4;stroke-dasharray:none;stroke-opacity:1" />
  <path
     style="fill:#dab101;fill-opacity:1;stroke:#000000;stroke-width:0.77858269;stroke-linecap:round;stroke-miterlimit:4;stroke-dasharray:none;stroke-opacity:1"
     id="path947"
     sodipodi:type="arc"
     sodipodi:cx="177.9995"
     sodipodi:cy="475.91254"
     sodipodi:rx="8"
     sodipodi:ry="8"
     sodipodi:start="0"
     sodipodi:end="6.272277"
     sodipodi:open="true"
     d="m 185.9995,475.91254 a 8,8 0 0 1 -7.97819,7.99997 8,8 0 0 1 -8.02169,-7.95634 8,8 0 0 1 7.93443,-8.04337 8,8 0 0 1 8.06497,7.91247" />
  <path
     style="fill:#dab101;fill-opacity:1;stroke:#000000;stroke-width:0.77858269;stroke-linecap:round;stroke-miterlimit:4;stroke-dasharray:none;stroke-opacity:1"
     id="path955"
     sodipodi:type="arc"
     sodipodi:cx="286.88785"
     sodipodi:cy="660.18512"
     sodipodi:rx="8"
     sodipodi:ry="8"
     sodipodi:start="0"
     sodipodi:end="6.272277"
     sodipodi:open="true"
     d="m 294.88785,660.18512 a 8,8 0 0 1 -7.97819,7.99997 8,8 0 0 1 -8.02169,-7.95634 8,8 0 0 1 7.93443,-8.04336 8,8 0 0 1 8.06497,7.91246" />
  <path
     d="m 105.96187,559.20746 a 8,8 0 0 1 -7.978185,7.99997 8,8 0 0 1 -8.021698,-7.95634 8,8 0 0 1 7.934432,-8.04336 8,8 0 0 1 8.064971,7.91246"
     sodipodi:open="true"
     sodipodi:end="6.272277"
     sodipodi:start="0"
     sodipodi:ry="8"
     sodipodi:rx="8"
     sodipodi:cy="559.20746"
     sodipodi:cx="97.961868"
     sodipodi:type="arc"
     id="path949"
     style="fill:#dab101;fill-opacity:1;stroke:#000000;stroke-width:0.77858269;stroke-linecap:round;stroke-miterlimit:4;stroke-dasharray:none;stroke-opacity:1" />
  <path
     style="fill:#dab101;fill-opacity:1;stroke:#000000;stroke-width:0.77858269;stroke-linecap:round;stroke-miterlimit:4;stroke-dasharray:none;stroke-opacity:1"
     id="path951"
     sodipodi:type="arc"
     sodipodi:cx="95.635193"
     sodipodi:cy="687.17456"
     sodipodi:rx="8"
     sodipodi:ry="8"
     sodipodi:start="0"
     sodipodi:end="6.272277"
     sodipodi:open="true"
     d="m 103.63519,687.17456 a 8,8 0 0 1 -7.978181,7.99997 8,8 0 0 1 -8.021697,-7.95634 8,8 0 0 1 7.934432,-8.04336 8,8 0 0 1 8.064976,7.91247" />
  <path
     d="m 172.97012,778.84552 a 8,8 0 0 1 -7.97818,7.99997 8,8 0 0 1 -8.0217,-7.95634 8,8 0 0 1 7.93443,-8.04336 8,8 0 0 1 8.06498,7.91247"
     sodipodi:open="true"
     sodipodi:end="6.272277"
     sodipodi:start="0"
     sodipodi:ry="8"
     sodipodi:rx="8"
     sodipodi:cy="778.84552"
     sodipodi:cx="164.97012"
     sodipodi:type="arc"
     id="path953"
     style="fill:#dab101;fill-opacity:1;stroke:#000000;stroke-width:0.77858269;stroke-linecap:round;stroke-miterlimit:4;stroke-dasharray:none;stroke-opacity:1" />
  <path
     d="m 180.12471,215.52264 a 8,8 0 0 1 -7.97818,7.99997 8,8 0 0 1 -8.0217,-7.95633 8,8 0 0 1 7.93443,-8.04337 8,8 0 0 1 8.06497,7.91247"
     sodipodi:open="true"
     sodipodi:end="6.272277"
     sodipodi:start="0"
     sodipodi:ry="8"
     sodipodi:rx="8"
     sodipodi:cy="215.52264"
     sodipodi:cx="172.12471"
     sodipodi:type="arc"
     id="path967"
     style="fill:#0204d4;fill-opacity:1;stroke:#000000;stroke-width:0.77858269;stroke-linecap:round;stroke-miterlimit:4;stroke-dasharray:none;stroke-opacity:1" />
  <path
     style="fill:#0204d4;fill-opacity:1;stroke:#000000;stroke-width:0.77858269;stroke-linecap:round;stroke-miterlimit:4;stroke-dasharray:none;stroke-opacity:1"
     id="path969"
     sodipodi:type="arc"
     sodipodi:cx="232.15291"
     sodipodi:cy="290.90689"
     sodipodi:rx="8"
     sodipodi:ry="8"
     sodipodi:start="0"
     sodipodi:end="6.272277"
     sodipodi:open="true"
     d="m 240.15291,290.90689 a 8,8 0 0 1 -7.97819,7.99997 8,8 0 0 1 -8.02169,-7.95634 8,8 0 0 1 7.93443,-8.04336 8,8 0 0 1 8.06497,7.91247" />
  <path
     d="m 252.71695,402.58728 a 8,8 0 0 1 -7.97818,7.99997 8,8 0 0 1 -8.0217,-7.95634 8,8 0 0 1 7.93443,-8.04336 8,8 0 0 1 8.06497,7.91247"
     sodipodi:open="true"
     sodipodi:end="6.272277"
     sodipodi:start="0"
     sodipodi:ry="8"
     sodipodi:rx="8"
     sodipodi:cy="402.58728"
     sodipodi:cx="244.71695"
     sodipodi:type="arc"
     id="path971"
     style="fill:#0204d4;fill-opacity:1;stroke:#000000;stroke-width:0.77858269;stroke-linecap:round;stroke-miterlimit:4;stroke-dasharray:none;stroke-opacity:1" />
  <path
     style="fill:#0204d4;fill-opacity:1;stroke:#000000;stroke-width:0.77858269;stroke-linecap:round;stroke-miterlimit:4;stroke-dasharray:none;stroke-opacity:1"
     id="path973"
     sodipodi:type="arc"
     sodipodi:cx="120.00718"
     sodipodi:cy="399.32993"
     sodipodi:rx="8"
     sodipodi:ry="8"
     sodipodi:start="0"
     sodipodi:end="6.272277"
     sodipodi:open="true"
     d="m 128.00718,399.32993 a 8,8 0 0 1 -7.97818,7.99997 8,8 0 0 1 -8.0217,-7.95634 8,8 0 0 1 7.93443,-8.04337 8,8 0 0 1 8.06497,7.91247" />
  <path
     d="m 55.414928,338.37106 a 8,8 0 0 1 -7.978183,7.99997 8,8 0 0 1 -8.021698,-7.95633 8,8 0 0 1 7.934432,-8.04337 8,8 0 0 1 8.064973,7.91247"
     sodipodi:open="true"
     sodipodi:end="6.272277"
     sodipodi:start="0"
     sodipodi:ry="8"
     sodipodi:rx="8"
     sodipodi:cy="338.37106"
     sodipodi:cx="47.414928"
     sodipodi:type="arc"
     id="path975"
     style="fill:#0204d4;fill-opacity:1;stroke:#000000;stroke-width:0.77858269;stroke-linecap:round;stroke-miterlimit:4;stroke-dasharray:none;stroke-opacity:1" />
  <path
     style="fill:#0204d4;fill-opacity:1;stroke:#000000;stroke-width:0.77858269;stroke-linecap:round;stroke-miterlimit:4;stroke-dasharray:none;stroke-opacity:1"
     id="path977"
     sodipodi:type="arc"
     sodipodi:cx="58.58297"
     sodipodi:cy="217.84932"
     sodipodi:rx="8"
     sodipodi:ry="8"
     sodipodi:start="0"
     sodipodi:end="6.272277"
     sodipodi:open="true"
     d="m 66.58297,217.84932 a 8,8 0 0 1 -7.978184,7.99997 8,8 0 0 1 -8.021697,-7.95634 8,8 0 0 1 7.934432,-8.04336 8,8 0 0 1 8.064973,7.91246" />
  <path
     style="fill:none;stroke:#0a03bf;stroke-width:2.64566922;stroke-linecap:butt;stroke-linejoin:miter;stroke-miterlimit:4;stroke-dasharray:none;stroke-opacity:1"
     d="M 59.877835,219.33716 232.29556,290.41011 244.14106,403.60038 119.1053,399.65188 172.90357,214.23701 46.716176,339.10825 Z"
     id="path979"
     inkscape:connector-curvature="0"
     sodipodi:nodetypes="ccccccc" />
  <path
     style="fill:none;stroke:#0a03bf;stroke-width:2.64566922;stroke-linecap:butt;stroke-linejoin:miter;stroke-miterlimit:4;stroke-dasharray:none;stroke-opacity:1"
     d="M 46.716176,339.10825 233.14445,292.58149 172.90357,214.23701 244.14106,403.60038 59.877835,219.33716"
     id="path983"
     inkscape:connector-curvature="0" />
  <path
     style="fill:none;stroke:#0a03bf;stroke-width:2.64566922;stroke-linecap:butt;stroke-linejoin:miter;stroke-miterlimit:4;stroke-dasharray:none;stroke-opacity:1"
     d="M 232.29556,290.41011 119.26982,397.84215"
     id="path985"
     inkscape:connector-curvature="0"
     sodipodi:nodetypes="cc" />
  <path
     style="fill:none;stroke:#0a03bf;stroke-width:2.64566922;stroke-linecap:butt;stroke-linejoin:miter;stroke-miterlimit:4;stroke-dasharray:none;stroke-opacity:1"
     d="m 46.716176,339.10825 198.082964,62.6824"
     id="path987"
     inkscape:connector-curvature="0" />
</svg>
